<?xml version="1.0" encoding="utf-8" ?>
<svg xmlns="http://www.w3.org/2000/svg" xmlns:xlink="http://www.w3.org/1999/xlink" width="1024" height="1024">
	<path fill="white" d="M869.794 39.2284L870.803 38.3776C872.038 38.6328 872.472 39.0252 873.172 40.0977C876.222 44.7739 877.94 51.1106 880.21 56.2419C890.429 79.3497 902.223 102.478 928.681 109.342C939.328 112.104 950.105 111.308 960.746 113.248C953.431 115.477 943.23 115.659 935.637 115.518C933.519 114.072 930.128 113.3 927.683 112.423C920.409 109.814 913.299 107.119 907.019 102.501Q903.345 99.7667 900.109 96.5254Q896.872 93.2841 894.144 89.6053C885.984 78.7841 871.876 52.4487 869.794 39.2284Z"/>
	<path fill="white" d="M853.523 39.8398C857.885 40.1815 865.825 41.0902 869.794 39.2284C871.876 52.4487 885.984 78.7841 894.144 89.6053Q896.872 93.2841 900.109 96.5254Q903.345 99.7667 907.019 102.501C913.299 107.119 920.409 109.814 927.683 112.423C930.128 113.3 933.519 114.072 935.637 115.518C932.023 115.996 928.284 116.008 924.65 115.797C893.209 113.97 877.045 88.2477 865.071 62.154C861.758 54.9329 859.321 46.2148 853.918 40.2655C853.788 40.1222 853.655 39.9817 853.523 39.8398Z"/>
	<path fill="#210EC7" d="M844.948 99.4721C848.869 85.5037 850.476 72.1011 850.692 57.6527C850.741 54.3908 850.16 42.9845 851.717 40.6356C852.187 39.9271 852.754 40.0169 853.523 39.8398C853.655 39.9817 853.788 40.1222 853.918 40.2655C859.321 46.2148 861.758 54.9329 865.071 62.154C877.045 88.2477 893.209 113.97 924.65 115.797C928.284 116.008 932.023 115.996 935.637 115.518C943.23 115.659 953.431 115.477 960.746 113.248C962.605 113.391 964.555 113.35 966.188 114.339C962.909 118.242 958.041 119.132 953.902 121.792C932.798 130.372 910.63 141.142 901.256 163.257C899.657 167.03 898.56 170.953 897.303 174.845Q895.666 181.802 894.646 188.876Q893.625 195.95 893.228 203.086C892.736 211.603 894.358 231.334 891.792 237.655C889.356 236.577 870.183 191.84 866.799 185.383C864.766 181.504 862.473 177.736 859.602 174.414C853.273 167.091 844.639 162.587 836.373 157.833C820.726 173.973 806.833 191.901 791.874 208.685L687.785 325.481L638.215 381.936Q575.067 451.412 514.308 522.988C515.684 526.282 516.872 529.381 517.143 532.996C517.439 536.947 516.329 539.522 513.762 542.481C508.962 548.015 496.487 559.059 489.992 561.944C488.473 562.619 486.537 562.69 484.894 562.83C476.168 571.689 468.12 581.314 459.845 590.599L408.317 648.589L211.795 867.41Q179.567 903.387 146.858 938.93C138.999 947.383 129.771 958.723 121.376 966.256C118.222 969.086 114.897 971.08 110.596 971.457C100.856 972.31 91.0094 966.163 83.8348 960.171C76.2184 953.81 66.1843 942.841 65.4952 932.383C65.2086 928.032 66.5479 925.421 69.1633 922.079C72.5817 917.711 76.6357 913.767 80.38 909.677L98.3349 889.844L172.972 808.387L371.053 592.75C392.723 569.035 414.943 545.785 436.272 521.766C435.831 519.792 435.148 517.479 435.506 515.453C436.523 509.69 449.745 492.993 455.109 489.231C461.566 484.703 468.772 485.754 476.012 487.159C490.657 470 506.665 453.84 521.894 437.185L635.057 314.352L724.469 217.524C748.028 191.541 770.729 164.807 795.415 139.857C792.608 139.558 789.737 139.055 786.991 138.406C784.787 137.885 780.59 137.11 779.372 135.098C781.944 130.827 802.744 128.248 808.627 125.053C815.574 121.279 820.19 114.289 825.461 108.625C831.063 102.605 836.658 99.7949 844.948 99.4721ZM446.854 524.664L440.748 523.429C434.214 529.116 428.494 535.865 422.671 542.262L396.503 571.044L310.491 664.975L175.889 810.665C149.905 838.757 123.464 866.54 98.4699 895.516L101.168 899.152C111.004 915.625 129.372 926.991 147.046 933.358C157.087 922.912 166.623 911.959 176.331 901.203L227.452 844.507L388.359 664.887L448.579 597.611C459.768 585.132 470.487 572.09 482.415 560.311C474.729 545.009 463.353 530.876 446.854 524.664ZM855.113 51.2913C854.333 67.9387 852.875 83.3591 848.955 99.5987C855.028 103.065 861.053 106.538 863.09 113.76C864.809 119.855 863.086 126.362 859.932 131.679C854.717 140.471 846.269 148.203 839.232 155.597C845.474 158.974 851.909 162.181 857.327 166.832C872.28 179.667 880.383 207.021 889.357 224.34C889.285 214.542 888.861 204.335 890.348 194.619C892.688 173.081 897.448 152.526 915.036 138.272C924.987 130.207 936.845 124.972 948.248 119.344C927.906 120.805 908.101 122 891.617 107.874C882.622 100.166 875.44 90.2311 869.595 79.9937Q866.216 74.0591 863.216 67.9248C861.085 63.4891 858.824 54.2443 855.113 51.2913ZM839.198 103.586C835.634 105.108 832.927 106.987 830.014 109.517C819.393 118.743 810.133 129.799 800.5 140.046L749.384 194.52C756.34 202.653 763.657 209.614 772.911 215.053C774.696 215.885 776.473 216.776 778.287 217.54C793.783 201.57 807.639 184.204 822.461 167.632C832.151 156.796 850.31 139.148 857.391 127.76C859.043 125.105 859.707 121.61 859.618 118.512C859.503 114.515 857.904 110.776 854.954 108.051C850.432 103.876 845.03 103.384 839.198 103.586ZM802.048 131.037C799.098 131.941 795.82 132.635 793.221 134.331L792.964 135.099C793.639 135.507 794.192 135.73 794.956 135.928C798.155 135.83 800.436 134.935 802.649 132.545C803.308 131.833 803.137 132.208 803.206 131.283L802.048 131.037ZM746.666 197.948L742.879 202.855C750.857 212.168 758.411 221.195 770.58 224.741C771.855 223.471 773.157 222.227 774.351 220.882C763.679 214.421 755.447 206.667 746.666 197.948ZM740.4 205.904C726.671 219.917 713.778 234.882 700.469 249.304L616.704 339.984L527.592 436.426C511.64 453.695 495.197 470.735 479.755 488.45C493 495.969 503.318 504.163 511.523 517.201L512.522 517.996C514.761 517.359 516.435 514.131 517.679 512.251C509.631 501.327 501.28 492.932 490.295 484.937L661.186 298.816L713.638 241.666C721.643 232.977 729.988 224.559 737.785 215.685C739.492 213.742 741.656 211.571 742.453 209.074C742.146 207.641 741.367 206.928 740.4 205.904ZM766.453 227.812C750.112 244.028 735.274 261.453 720.096 278.739L664.351 342.035L553.027 467.598C542.765 479.196 532.223 490.576 522.064 502.26C520.995 503.49 520.275 504.44 519.817 506.014C519.891 507.144 520.156 507.559 520.841 508.448L697.793 307.843L743.416 256.878C751.046 248.329 761.173 238.296 767.188 228.751L767.043 228.123L766.453 227.812ZM462.852 489.546C455.756 492.699 448.947 496.979 445.928 504.512C445.583 505.373 445.4 505.946 445.568 506.88C446.664 507.123 447.298 506.631 448.205 506.044C456.312 500.796 458.191 492.641 469.76 494.689C483.028 497.038 495.369 510.815 502.651 521.268C504.102 523.774 505.553 526.266 506.588 528.98C507.577 531.577 508.787 537.972 510.204 539.903C510.378 540.141 510.665 540.269 510.895 540.452C511.904 539.816 512.114 539.024 512.395 537.898C514.284 530.333 509.53 522.108 505.522 515.965C497.714 503.998 485.238 492.866 470.878 489.992C468.225 489.462 465.547 489.423 462.852 489.546ZM440.666 510.5C439.594 512.192 438.269 513.973 438.604 516.103C438.847 517.651 440.151 519.203 441.424 520.009C444.481 521.942 449.574 521.382 453.108 522.964C468.892 530.032 478.423 544.4 486.095 559.197L490.957 557.994C492.152 557.133 493.085 556.537 493.417 554.999C494.582 549.597 488.85 541.912 485.72 537.835C476.727 526.122 462.102 512.688 446.791 510.711C444.752 510.447 442.717 510.444 440.666 510.5ZM95.817 897.891L91.9994 902.505C103.556 918.04 120.694 935.965 140.35 940.359C141.574 939.238 142.331 938.773 142.873 937.182C142.12 935.715 141.306 935.204 139.728 934.7C126.065 930.337 112.486 919.934 103.487 908.766C100.706 905.314 98.5928 901.237 95.817 897.891ZM73.2817 922.913C70.7493 925.428 69.0514 927.274 68.9767 930.98C68.8129 939.105 75.9671 947.434 81.4407 952.798C88.4063 959.623 99.3897 968.108 109.703 967.914C111.119 967.888 112.593 967.561 113.96 967.193C116.239 965.797 118.218 964.368 120.244 962.625C103.204 957.835 87.5025 949.111 78.4043 933.277C76.5671 930.079 75.5106 925.761 73.2817 922.913Z"/>
	<path fill="white" d="M848.955 99.5987C852.875 83.3591 854.333 67.9387 855.113 51.2913C858.824 54.2443 861.085 63.4891 863.216 67.9248Q866.217 74.0591 869.595 79.9937C875.44 90.2311 882.622 100.166 891.617 107.874C908.101 122 927.906 120.805 948.248 119.344C936.845 124.972 924.987 130.207 915.036 138.272C897.448 152.526 892.688 173.081 890.348 194.619C888.861 204.335 889.285 214.542 889.357 224.34C880.383 207.021 872.28 179.667 857.327 166.832C851.909 162.181 845.474 158.974 839.232 155.597C846.269 148.203 854.717 140.471 859.932 131.679C863.086 126.362 864.809 119.855 863.09 113.76C861.053 106.538 855.028 103.065 848.955 99.5987ZM859.58 95.2571C859.66 95.9222 859.593 96.6222 859.82 97.2524C860.413 98.8967 863.022 100.976 864.306 102.264C872.297 110.284 877.723 119.534 869.566 129.777C867.318 132.6 855.456 141.31 855.325 141.716C855.221 142.035 855.316 142.386 855.312 142.721C856.147 143.165 856.644 143.355 857.593 143.385C865.085 140.795 870.617 136.325 874.06 129.114C876.908 123.147 877.519 116.726 875.323 110.441C873.143 104.206 868.86 99.0749 862.883 96.1981C861.751 95.6531 860.82 95.3916 859.58 95.2571ZM861.133 157.822C864.182 164.152 871.058 167.022 874.529 173.327C878.046 179.714 883.667 198.609 888.512 202.067C888.641 190.557 879.04 171.231 871.138 163.029C868.301 160.084 865.302 157.956 861.133 157.822Z"/>
	<path fill="#210EC7" d="M699.278 92.8433C705.201 89.6897 712.045 87.7371 717.135 83.211C724.605 76.5694 724.461 67.2015 725.028 58.0462C725.746 58.2171 726.938 58.4919 727.504 58.9444C729.956 60.9044 728.815 70.8346 737.549 77.7671C745.825 84.3365 759.183 82.1918 761.68 84.3985C761.007 88.5134 746.981 89.9937 741.717 95.3608C735.585 101.615 734.657 111.75 734.54 120.059L733.997 121.208L733.037 121.362C729.384 118.635 728.829 110.263 726.512 106.09C719.4 93.2809 711.186 96.4944 699.785 93.0073C699.615 92.9554 699.447 92.898 699.278 92.8433ZM728.113 73.3085C724.782 81.1092 720.623 85.8928 714.098 91.2492C717.907 92.7604 721.538 94.2052 724.646 96.9784C726.688 98.7998 729.254 103.778 731.366 104.725L731.774 104.337C735.522 96.2817 739.753 91.5896 746.964 86.427C738.297 83.8272 733.91 80.0111 728.113 73.3085Z"/>
	<path fill="white" d="M714.098 91.2492C720.623 85.8928 724.782 81.1092 728.113 73.3085C733.91 80.0111 738.297 83.8272 746.964 86.427C739.753 91.5896 735.522 96.2817 731.774 104.337L731.366 104.725C729.254 103.778 726.688 98.7998 724.646 96.9784C721.538 94.2052 717.907 92.7604 714.098 91.2492Z"/>
	<path fill="white" d="M857.593 143.385C856.644 143.355 856.147 143.165 855.312 142.721C855.316 142.386 855.221 142.035 855.325 141.716C855.456 141.31 867.318 132.6 869.566 129.777C877.723 119.534 872.297 110.284 864.306 102.264C863.022 100.976 860.413 98.8967 859.82 97.2524C859.593 96.6222 859.66 95.9222 859.58 95.2571C860.82 95.3916 861.751 95.6531 862.883 96.1981C868.86 99.0749 873.143 104.206 875.323 110.441C877.519 116.726 876.908 123.147 874.06 129.114C870.617 136.325 865.085 140.795 857.593 143.385Z"/>
	<path fill="white" d="M749.384 194.52L800.5 140.046C810.133 129.799 819.393 118.743 830.014 109.517C832.927 106.987 835.634 105.108 839.198 103.586C845.03 103.384 850.432 103.876 854.954 108.051C857.904 110.776 859.503 114.515 859.618 118.512C859.707 121.61 859.043 125.105 857.391 127.76C850.31 139.148 832.151 156.796 822.461 167.632C807.639 184.204 793.783 201.57 778.287 217.54C776.473 216.776 774.696 215.885 772.911 215.053C763.657 209.614 756.34 202.653 749.384 194.52Z"/>
	<path fill="white" d="M953.902 121.792C958.041 119.132 962.909 118.242 966.188 114.339L971.177 116.055C965.477 119.946 959.322 123.078 953.454 126.7C932.56 139.598 915.95 154.977 911.221 180.046C909.039 191.613 908.636 203.645 909.03 215.398C909.183 219.979 909.737 224.666 909.684 229.24C909.666 230.856 909.308 231.986 908.532 233.384L907.964 233.72C906.356 232.404 906.178 228.592 905.98 226.522C905.025 216.537 904.777 206.195 905.254 196.174C905.385 193.414 907.177 184.483 905.808 182.513C908.163 180.235 910.929 167.372 912.803 163.233C915.289 157.744 918.899 152.146 922.671 147.465C928.321 140.453 936.091 134.325 943.497 129.28C945.933 127.621 952.72 124.199 953.902 121.792Z"/>
	<path fill="white" d="M897.303 174.845C898.56 170.953 899.657 167.03 901.256 163.257C910.63 141.142 932.798 130.372 953.902 121.792C952.72 124.199 945.933 127.621 943.497 129.28C936.091 134.325 928.321 140.453 922.671 147.465C918.899 152.146 915.289 157.744 912.803 163.233C910.929 167.372 908.163 180.235 905.808 182.513C905.673 181.258 905.652 179.308 904.903 178.252C903.25 175.924 899.904 175.537 897.303 174.845Z"/>
	<path fill="white" d="M794.956 135.928C794.192 135.73 793.639 135.507 792.964 135.099L793.221 134.331C795.82 132.635 799.098 131.941 802.048 131.037L803.206 131.283C803.137 132.208 803.308 131.833 802.649 132.545C800.436 134.935 798.155 135.83 794.956 135.928Z"/>
	<path fill="white" d="M888.512 202.067C883.667 198.609 878.046 179.714 874.529 173.327C871.058 167.022 864.182 164.152 861.133 157.822C865.302 157.956 868.301 160.084 871.138 163.029C879.04 171.231 888.641 190.557 888.512 202.067Z"/>
	<path fill="white" d="M742.879 202.855L746.666 197.948C755.447 206.667 763.679 214.421 774.351 220.882C773.157 222.227 771.855 223.471 770.58 224.741C758.411 221.195 750.857 212.168 742.879 202.855Z"/>
	<path fill="white" d="M479.755 488.45C495.197 470.735 511.64 453.695 527.592 436.426L616.704 339.984L700.469 249.304C713.778 234.882 726.671 219.917 740.4 205.904C741.367 206.928 742.146 207.641 742.453 209.074C741.656 211.571 739.492 213.742 737.785 215.685C729.988 224.559 721.643 232.977 713.638 241.666L661.186 298.816L490.295 484.937C501.28 492.932 509.631 501.327 517.679 512.251C516.435 514.131 514.761 517.359 512.522 517.996L511.523 517.201C503.318 504.163 493 495.969 479.755 488.45Z"/>
	<path fill="white" d="M520.841 508.448C520.156 507.559 519.891 507.144 519.817 506.014C520.275 504.44 520.995 503.49 522.064 502.26C532.223 490.576 542.765 479.196 553.027 467.598L664.351 342.035L720.096 278.739C735.274 261.453 750.112 244.028 766.453 227.812L767.043 228.123L767.188 228.751C761.173 238.296 751.046 248.329 743.416 256.878L697.793 307.843L520.841 508.448Z"/>
	<path fill="#210EC7" d="M721.699 459.036C720.63 458.617 719.855 458.246 719.181 457.274C718.076 455.682 717.473 453.351 716.704 451.545C714.573 446.544 712.506 441.51 709.491 436.959C700.118 422.811 689.436 426.817 675.449 423.594C673.952 423.249 672.569 423.023 671.697 421.693C673.885 418.283 690.967 414.458 696.415 410.526C707.783 402.32 704.165 387.527 705.89 375.601C710.933 376.865 713.106 386.188 714.964 390.604C722.378 408.214 730.695 407.723 747.588 409.117C750.485 409.356 753.443 409.384 755.903 411.109L755.806 411.774C749.22 417.758 738.771 418.758 731.706 424.25C721.904 431.87 723.418 448.008 721.699 459.036ZM719.309 447.006C719.552 443.397 719.68 439.394 720.891 435.969C720.978 436.689 721.133 437.276 721.336 437.968L721.899 437.799L723.081 435.411L722.344 433.684L720.891 435.969C721.111 434.181 721.6 432.499 722.284 430.83C726.282 421.067 735.721 417.122 744.748 413.326C739.74 412.543 734.54 411.942 729.678 410.488C717.742 406.917 714.551 398.131 709.211 388.171C708.813 392.414 708.38 396.561 707.502 400.74C706.954 402.415 706.414 404.12 705.644 405.708C701.136 415.013 692.394 417.569 683.422 420.662C688.627 421.413 694.087 422.004 699.084 423.718C710.326 427.572 714.44 437.19 719.309 447.006Z"/>
	<path fill="white" d="M720.891 435.969C719.68 439.394 719.552 443.397 719.309 447.006C714.44 437.19 710.326 427.572 699.084 423.718C694.087 422.004 688.627 421.413 683.422 420.662C692.394 417.569 701.136 415.013 705.644 405.708C706.414 404.12 706.954 402.415 707.502 400.74C708.38 396.561 708.813 392.414 709.211 388.171C714.551 398.131 717.742 406.917 729.678 410.488C734.54 411.942 739.74 412.543 744.748 413.326C735.721 417.122 726.282 421.067 722.284 430.83C721.6 432.499 721.111 434.181 720.891 435.969Z"/>
	<defs>
		<linearGradient id="gradient_0" gradientUnits="userSpaceOnUse" x1="721.30719" y1="434.90942" x2="722.69281" y2="435.59058">
			<stop offset="0" stop-color="#210EC7" stop-opacity="0.96862745"/>
			<stop offset="1" stop-color="#210EC7"/>
		</linearGradient>
	</defs>
	<path fill="url(#gradient_0)" d="M720.891 435.969L722.344 433.684L723.081 435.411L721.899 437.799L721.336 437.968C721.133 437.276 720.978 436.689 720.891 435.969Z"/>
	<path fill="white" d="M502.651 521.268C495.369 510.815 483.028 497.038 469.76 494.689C458.191 492.641 456.312 500.796 448.205 506.044C447.298 506.631 446.664 507.123 445.568 506.88C445.4 505.946 445.583 505.373 445.928 504.512C448.947 496.979 455.756 492.699 462.852 489.546C465.547 489.423 468.225 489.462 470.878 489.992C485.238 492.866 497.714 503.998 505.522 515.965C509.53 522.108 514.284 530.333 512.395 537.898C512.114 539.024 511.904 539.816 510.895 540.452C510.665 540.269 510.378 540.141 510.204 539.903C508.787 537.972 507.577 531.577 506.588 528.98C505.553 526.266 504.102 523.774 502.651 521.268Z"/>
	<path fill="white" d="M486.095 559.197C478.423 544.4 468.892 530.032 453.108 522.964C449.574 521.382 444.481 521.942 441.424 520.009C440.151 519.203 438.847 517.651 438.604 516.103C438.269 513.973 439.594 512.192 440.666 510.5C442.717 510.444 444.752 510.447 446.791 510.711C462.102 512.688 476.727 526.122 485.72 537.835C488.85 541.912 494.582 549.597 493.417 554.999C493.085 556.537 492.152 557.133 490.957 557.994L486.095 559.197Z"/>
	<path fill="white" d="M440.748 523.429L446.854 524.664L219.392 771.238L141.57 855.615L115.002 884.363C110.425 889.298 106.013 894.482 101.168 899.152L98.4699 895.516C123.464 866.54 149.905 838.757 175.889 810.665L310.491 664.975L396.503 571.044L422.671 542.262C428.494 535.865 434.214 529.116 440.748 523.429Z"/>
	<path fill="white" d="M446.854 524.664C463.353 530.876 474.729 545.009 482.415 560.311C470.487 572.09 459.768 585.132 448.579 597.611L388.359 664.887L227.452 844.507L176.331 901.203C166.623 911.959 157.087 922.912 147.046 933.358C129.372 926.991 111.004 915.625 101.168 899.152C106.013 894.482 110.425 889.298 115.002 884.363L141.57 855.615L219.392 771.238L446.854 524.664Z"/>
	<path fill="white" d="M91.9994 902.505L95.817 897.891C98.5928 901.237 100.706 905.314 103.487 908.766C112.486 919.934 126.065 930.337 139.728 934.7C141.306 935.204 142.12 935.715 142.873 937.182C142.331 938.773 141.574 939.238 140.35 940.359C120.694 935.965 103.556 918.04 91.9994 902.505Z"/>
	<path fill="white" d="M113.96 967.193C112.593 967.561 111.119 967.888 109.703 967.914C99.3897 968.108 88.4063 959.623 81.4407 952.798C75.9671 947.434 68.8129 939.105 68.9767 930.98C69.0514 927.274 70.7493 925.428 73.2817 922.913C75.5106 925.761 76.5671 930.079 78.4043 933.277C87.5025 949.111 103.204 957.835 120.244 962.625C118.218 964.368 116.239 965.797 113.96 967.193Z"/>
</svg>
